<svg width="640" height="640" viewBox="0 0 640 640" fill="none" xmlns="http://www.w3.org/2000/svg">
<path d="M640 320C640 496.731 496.731 640 320 640C143.269 640 0 496.731 0 320C0 143.269 143.269 0 320 0C496.731 0 640 143.269 640 320Z" fill="#272B32"/>
<path d="M95.9693 548.702C116.312 569.046 140.354 587.539 164.396 600.485L325.292 330.476C323.443 328.627 319.744 326.777 317.895 324.928C316.045 323.078 314.196 319.38 312.347 317.53L42.3374 480.276C57.1324 504.317 73.7768 526.51 95.9693 548.702Z" fill="#6F798B" fill-opacity="0.5"/>
<circle cx="320.353" cy="320.353" r="136.185" fill="#E01254"/>
<path d="M360.573 320C360.573 342.408 342.408 360.573 320 360.573C297.592 360.573 279.427 342.408 279.427 320C279.427 297.592 297.592 279.427 320 279.427C342.408 279.427 360.573 297.592 360.573 320Z" fill="#272B32"/>
</svg>
